<svg xmlns="http://www.w3.org/2000/svg" height="502" width="960.0" font-size="16" font-family="sans-serif" stroke-width="2">
<g transform="translate(10.0 0)">
<text fill="hsl(0, 100%, 40%)" y="22">knapsack.dense-unboxed-vector 3.96 ms</text>
<g>
<title>3.96 ms ± 185 μs</title>
<rect y="28" rx="5" height="22" width="3.2056422417791173" fill="hsl(0, 100%, 80%)" stroke="hsl(0, 100%, 55%)" />
<g stroke="hsl(0, 100%, 40%)"><line x1="3.0561208275380007" x2="3.355163656020234" y1="39" y2="39" />
<line x1="3.0561208275380007" x2="3.0561208275380007" y1="33" y2="45" />
<line x1="3.355163656020234" x2="3.355163656020234" y1="33" y2="45" />
</g>
</g>
<g fill="hsl(40, 100%, 40%)">
<text y="77">knapsack.dense-boxed-vector</text>
<text y="77" x="874.6852507476773" text-anchor="end">1.082 s</text>
</g>
<g>
<title>1.082 s ±  36 ms</title>
<rect y="83" rx="5" height="22" width="874.6852507476773" fill="hsl(40, 100%, 80%)" stroke="hsl(40, 100%, 55%)" />
<g stroke="hsl(40, 100%, 40%)"><line x1="845.5480373283315" x2="903.8224641670231" y1="94" y2="94" />
<line x1="845.5480373283315" x2="845.5480373283315" y1="88" y2="100" />
<line x1="903.8224641670231" x2="903.8224641670231" y1="88" y2="100" />
</g>
</g>
<g fill="hsl(80, 100%, 40%)">
<text y="132">knapsack.sparse-list</text>
<text y="132" x="886.2632315009924" text-anchor="end">1.096 s</text>
</g>
<g>
<title>1.096 s ±  14 ms</title>
<rect y="138" rx="5" height="22" width="886.2632315009924" fill="hsl(80, 100%, 80%)" stroke="hsl(80, 100%, 55%)" />
<g stroke="hsl(80, 100%, 40%)"><line x1="874.955045843135" x2="897.5714171588498" y1="149" y2="149" />
<line x1="874.955045843135" x2="874.955045843135" y1="143" y2="155" />
<line x1="897.5714171588498" x2="897.5714171588498" y1="143" y2="155" />
</g>
</g>
<g fill="hsl(120, 100%, 40%)">
<text y="187">knapsack.sparse-list-forced</text>
<text y="187" x="304.1635629717077" text-anchor="end">376  ms</text>
</g>
<g>
<title>376  ms ± 8.9 ms</title>
<rect y="193" rx="5" height="22" width="304.1635629717077" fill="hsl(120, 100%, 80%)" stroke="hsl(120, 100%, 55%)" />
<g stroke="hsl(120, 100%, 40%)"><line x1="296.9900593374159" x2="311.33706660599944" y1="204" y2="204" />
<line x1="296.9900593374159" x2="296.9900593374159" y1="198" y2="210" />
<line x1="311.33706660599944" x2="311.33706660599944" y1="198" y2="210" />
</g>
</g>
<g fill="hsl(160, 100%, 40%)">
<text y="242">knapsack.sparse-int-map</text>
<text y="242" x="910.3128533397091" text-anchor="end">1.126 s</text>
</g>
<g>
<title>1.126 s ± 7.8 ms</title>
<rect y="248" rx="5" height="22" width="910.3128533397091" fill="hsl(160, 100%, 80%)" stroke="hsl(160, 100%, 55%)" />
<g stroke="hsl(160, 100%, 40%)"><line x1="903.9801634034333" x2="916.645543275985" y1="259" y2="259" />
<line x1="903.9801634034333" x2="903.9801634034333" y1="253" y2="265" />
<line x1="916.645543275985" x2="916.645543275985" y1="253" y2="265" />
</g>
</g>
<g fill="hsl(200, 100%, 40%)">
<text y="297">knapsack.sparse-int-map-forced</text>
<text y="297" x="936.9362101425825" text-anchor="end">1.159 s</text>
</g>
<g>
<title>1.159 s ± 3.8 ms</title>
<rect y="303" rx="5" height="22" width="936.9362101425825" fill="hsl(200, 100%, 80%)" stroke="hsl(200, 100%, 55%)" />
<g stroke="hsl(200, 100%, 40%)"><line x1="933.8724202851649" x2="940.0" y1="314" y2="314" />
<line x1="933.8724202851649" x2="933.8724202851649" y1="308" y2="320" />
<line x1="940.0" x2="940.0" y1="308" y2="320" />
</g>
</g>
<text fill="hsl(240, 100%, 40%)" y="352">knapsack.sparse-unboxed-vector 117  ms</text>
<g>
<title>117  ms ± 2.6 ms</title>
<rect y="358" rx="5" height="22" width="94.81306468979048" fill="hsl(240, 100%, 80%)" stroke="hsl(240, 100%, 55%)" />
<g stroke="hsl(240, 100%, 40%)"><line x1="92.72264885990583" x2="96.90348051967513" y1="369" y2="369" />
<line x1="92.72264885990583" x2="92.72264885990583" y1="363" y2="375" />
<line x1="96.90348051967513" x2="96.90348051967513" y1="363" y2="375" />
</g>
</g>
<text fill="hsl(280, 100%, 40%)" y="407">knapsack.sparse-mono-list 499  μs</text>
<g>
<title>499  μs ±  46 μs</title>
<rect y="413" rx="5" height="22" width="0.4034509433765737" fill="hsl(280, 100%, 80%)" stroke="hsl(280, 100%, 55%)" />
<g stroke="hsl(280, 100%, 40%)"><line x1="0.36591741077071704" x2="0.4409844759824304" y1="424" y2="424" />
<line x1="0.36591741077071704" x2="0.36591741077071704" y1="418" y2="430" />
<line x1="0.4409844759824304" x2="0.4409844759824304" y1="418" y2="430" />
</g>
</g>
<text fill="hsl(320, 100%, 40%)" y="462">knapsack.sparse-mono-unboxed-vector 473  μs</text>
<g>
<title>473  μs ±  40 μs</title>
<rect y="468" rx="5" height="22" width="0.3824347252790731" fill="hsl(320, 100%, 80%)" stroke="hsl(320, 100%, 55%)" />
<g stroke="hsl(320, 100%, 40%)"><line x1="0.3503714611787283" x2="0.41449798937941784" y1="479" y2="479" />
<line x1="0.3503714611787283" x2="0.3503714611787283" y1="473" y2="485" />
<line x1="0.41449798937941784" x2="0.41449798937941784" y1="473" y2="485" />
</g>
</g>
</g>
</svg>
